# xmcd
# 
# Track frame offsets:
#     183
#     18933
#     53745
#     70908
# 
# Disc length: 1187
# 
# Revision: 0
# Processed by: cddbd v1.5.2PL0 Copyright (c) Steve Scherf et al.
# Submitted via: BonkEnc v1.0.8
# 
DISCID=2b04a104
DTITLE=Azizi - Taken From The Fothcoming Album "Trouble"
DYEAR=1991
DGENRE=
TTITLE0=Don't Say That It's Over (The classic Radio Version)
TTITLE1=Don't Say That It's Over (The Classic Cub Mix)
TTITLE2=Don't Say That It's Over (The Fierce Reprise)
TTITLE3=Don't Say That It's Over 
EXTD=
EXTT0=
EXTT1=
EXTT2=
EXTT3=
PLAYORDER=
